<svg width="411" height="96" viewBox="0 0 411 96" fill="none" xmlns="http://www.w3.org/2000/svg">
<path d="M95.735 82.52C95.875 82.52 96.045 82.615 96.245 82.805C96.455 82.985 96.56 83.14 96.56 83.27C96.56 83.88 96.54 84.715 96.5 85.775C96.49 86.035 96.48 86.35 96.47 86.72C96.46 87.08 96.455 87.5 96.455 87.98C96.455 89.5 96.545 90.62 96.725 91.34C96.715 91.58 96.62 91.755 96.44 91.865C96.26 91.965 96.08 92.015 95.9 92.015C95.5 92.015 95.235 91.875 95.105 91.595C94.985 91.315 94.925 90.915 94.925 90.395C94.925 88.465 94.945 86.69 94.985 85.07C93.835 86.35 92.94 87.425 92.3 88.295C92.3 88.295 92.21 88.355 92.03 88.475C91.86 88.625 91.72 88.7 91.61 88.7C91.35 88.7 91.135 88.635 90.965 88.505C90.795 88.375 90.63 88.185 90.47 87.935L89.75 86.915C89.25 86.215 88.885 85.685 88.655 85.325C88.655 86.245 88.7 87.495 88.79 89.075C88.86 89.985 88.895 90.67 88.895 91.13C88.895 91.37 88.835 91.575 88.715 91.745C88.595 91.905 88.405 91.985 88.145 91.985C87.885 91.985 87.67 91.935 87.5 91.835C87.34 91.735 87.255 91.585 87.245 91.385C87.255 91.215 87.26 90.935 87.26 90.545C87.26 89.765 87.235 88.815 87.185 87.695L87.155 86.885L87.125 85.835C87.115 85.525 87.105 85.165 87.095 84.755C87.085 84.335 87.08 83.88 87.08 83.39C87.08 82.79 87.405 82.49 88.055 82.49C88.255 82.49 88.455 82.54 88.655 82.64C88.865 82.74 89.02 82.885 89.12 83.075C89.2 83.425 89.495 84.005 90.005 84.815C90.515 85.625 91.015 86.385 91.505 87.095C91.945 86.535 92.305 86.115 92.585 85.835C93.065 85.345 93.46 84.89 93.77 84.47C94.09 84.05 94.435 83.545 94.805 82.955C94.895 82.835 95.025 82.735 95.195 82.655C95.365 82.565 95.545 82.52 95.735 82.52ZM105.412 91.28C105.412 91.5 105.292 91.685 105.052 91.835C104.822 91.985 104.607 92.06 104.407 92.06C104.027 92.06 103.722 92.015 103.492 91.925C103.272 91.825 103.067 91.645 102.877 91.385C102.617 91.615 102.262 91.79 101.812 91.91C101.362 92.02 100.947 92.075 100.567 92.075C99.947 92.075 99.437 91.91 99.037 91.58C98.637 91.24 98.437 90.745 98.437 90.095C98.437 89.815 98.512 89.56 98.662 89.33C98.812 89.09 99.017 88.88 99.277 88.7C99.567 88.51 99.897 88.365 100.267 88.265C100.637 88.155 101.022 88.1 101.422 88.1C101.632 88.1 101.882 88.14 102.172 88.22C102.462 88.3 102.687 88.385 102.847 88.475V88.235C102.847 87.695 102.717 87.325 102.457 87.125C102.197 86.915 101.777 86.81 101.197 86.81C101.027 86.81 100.857 86.845 100.687 86.915C100.527 86.985 100.342 87.08 100.132 87.2C99.852 87.35 99.587 87.425 99.337 87.425C99.247 87.425 99.162 87.365 99.082 87.245C99.002 87.115 98.962 87 98.962 86.9C98.962 86.61 99.097 86.36 99.367 86.15C99.647 85.94 99.977 85.785 100.357 85.685C100.737 85.575 101.077 85.52 101.377 85.52C101.677 85.52 102.022 85.58 102.412 85.7C102.802 85.81 103.122 85.965 103.372 86.165C103.672 86.425 103.902 86.73 104.062 87.08C104.232 87.42 104.317 87.795 104.317 88.205C104.317 88.335 104.307 88.53 104.287 88.79C104.267 89.07 104.257 89.31 104.257 89.51C104.257 89.6 104.247 89.735 104.227 89.915C104.207 90.135 104.197 90.31 104.197 90.44C104.197 90.56 104.242 90.665 104.332 90.755C104.422 90.835 104.527 90.875 104.647 90.875L105.067 90.86C105.177 90.86 105.262 90.9 105.322 90.98C105.382 91.06 105.412 91.16 105.412 91.28ZM100.582 90.89C101.012 90.89 101.372 90.845 101.662 90.755C101.952 90.665 102.302 90.5 102.712 90.26C102.752 90.09 102.777 89.865 102.787 89.585C102.237 89.325 101.782 89.195 101.422 89.195C101.012 89.195 100.647 89.27 100.327 89.42C100.007 89.57 99.847 89.835 99.847 90.215C99.847 90.405 99.927 90.565 100.087 90.695C100.247 90.825 100.412 90.89 100.582 90.89ZM113.249 90.845C113.299 90.865 113.379 90.89 113.489 90.92C113.599 90.95 113.679 90.98 113.729 91.01C113.779 91.04 113.804 91.085 113.804 91.145C113.814 91.385 113.724 91.585 113.534 91.745C113.354 91.895 113.139 91.97 112.889 91.97C112.499 91.97 112.194 91.865 111.974 91.655C111.754 91.445 111.594 91.125 111.494 90.695C111.454 90.525 111.434 90.29 111.434 89.99C111.434 89.82 111.444 89.545 111.464 89.165C111.484 88.765 111.494 88.445 111.494 88.205C111.494 87.855 111.394 87.55 111.194 87.29C111.004 87.02 110.734 86.885 110.384 86.885C110.174 86.885 109.954 86.95 109.724 87.08C109.494 87.2 109.334 87.35 109.244 87.53C109.094 87.82 108.989 88.135 108.929 88.475C108.819 89.075 108.764 89.7 108.764 90.35C108.764 90.66 108.769 90.9 108.779 91.07C108.779 91.11 108.779 91.19 108.779 91.31C108.789 91.42 108.779 91.525 108.749 91.625C108.729 91.715 108.689 91.8 108.629 91.88C108.579 91.93 108.499 91.97 108.389 92C108.289 92.04 108.194 92.06 108.104 92.06C107.964 92.06 107.789 92 107.579 91.88C107.369 91.76 107.249 91.625 107.219 91.475L107.204 91.22C107.204 91.13 107.214 91.025 107.234 90.905C107.354 90.205 107.414 89.595 107.414 89.075C107.414 88.845 107.409 88.665 107.399 88.535L107.384 87.83C107.384 87.59 107.324 87.36 107.204 87.14C107.084 86.91 106.944 86.795 106.784 86.795C106.734 86.795 106.664 86.815 106.574 86.855C106.484 86.885 106.409 86.9 106.349 86.9C106.249 86.9 106.139 86.85 106.019 86.75C105.909 86.65 105.854 86.545 105.854 86.435C105.854 86.225 105.924 86.055 106.064 85.925C106.214 85.805 106.359 85.71 106.499 85.64C106.649 85.57 106.819 85.535 107.009 85.535C107.169 85.535 107.299 85.55 107.399 85.58C107.499 85.61 107.634 85.675 107.804 85.775C107.894 85.825 107.999 85.935 108.119 86.105C108.239 86.275 108.339 86.515 108.419 86.825C108.679 86.345 108.999 86.01 109.379 85.82C109.769 85.62 110.264 85.52 110.864 85.52C111.094 85.52 111.339 85.595 111.599 85.745C111.869 85.895 112.099 86.07 112.289 86.27C112.469 86.49 112.619 86.765 112.739 87.095C112.859 87.415 112.919 87.705 112.919 87.965C112.919 88.115 112.909 88.36 112.889 88.7C112.859 88.97 112.844 89.255 112.844 89.555C112.844 90.255 112.979 90.685 113.249 90.845ZM120.651 88.235C120.651 88.695 120.536 89.085 120.306 89.405C120.076 89.715 119.771 89.99 119.391 90.23C118.871 90.51 118.266 90.655 117.576 90.665C117.536 90.785 117.516 90.91 117.516 91.04C117.516 91.16 117.581 91.25 117.711 91.31C117.851 91.36 118.096 91.4 118.446 91.43C118.736 91.45 119.061 91.515 119.421 91.625C119.791 91.725 120.081 91.84 120.291 91.97C120.551 92.16 120.731 92.365 120.831 92.585C120.941 92.805 120.996 93.08 120.996 93.41C120.996 93.84 120.796 94.2 120.396 94.49C120.006 94.79 119.546 95.01 119.016 95.15C118.486 95.29 118.021 95.36 117.621 95.36C117.141 95.36 116.731 95.3 116.391 95.18C116.061 95.07 115.746 94.915 115.446 94.715C115.236 94.565 115.071 94.375 114.951 94.145C114.831 93.915 114.771 93.675 114.771 93.425C114.771 93.175 114.851 92.935 115.011 92.705C115.181 92.475 115.386 92.275 115.626 92.105C115.866 91.945 116.091 91.835 116.301 91.775C116.221 91.675 116.161 91.59 116.121 91.52C116.091 91.44 116.076 91.35 116.076 91.25C116.076 90.91 116.161 90.625 116.331 90.395C115.851 90.235 115.471 89.95 115.191 89.54C114.921 89.13 114.786 88.65 114.786 88.1C114.786 87.74 114.871 87.415 115.041 87.125C115.211 86.825 115.446 86.54 115.746 86.27C116.256 85.81 116.961 85.58 117.861 85.58C117.981 85.58 118.146 85.6 118.356 85.64C118.566 85.68 118.771 85.735 118.971 85.805C119.291 85.665 119.666 85.52 120.096 85.37C120.526 85.22 120.816 85.145 120.966 85.145C121.196 85.145 121.366 85.185 121.476 85.265C121.596 85.335 121.656 85.495 121.656 85.745C121.656 85.975 121.521 86.14 121.251 86.24C120.991 86.34 120.596 86.435 120.066 86.525C120.456 86.995 120.651 87.565 120.651 88.235ZM117.531 89.435C118.111 89.435 118.531 89.315 118.791 89.075C119.061 88.835 119.196 88.475 119.196 87.995C119.196 87.205 118.731 86.81 117.801 86.81C117.441 86.81 117.156 86.85 116.946 86.93C116.746 87.01 116.581 87.145 116.451 87.335C116.271 87.575 116.181 87.9 116.181 88.31C116.181 88.63 116.311 88.9 116.571 89.12C116.841 89.33 117.161 89.435 117.531 89.435ZM116.181 93.53C116.181 93.7 116.336 93.845 116.646 93.965C116.966 94.095 117.306 94.16 117.666 94.16C118.066 94.16 118.476 94.085 118.896 93.935C119.326 93.795 119.541 93.605 119.541 93.365C119.541 93.015 119.231 92.79 118.611 92.69C118.391 92.65 118.071 92.575 117.651 92.465C117.601 92.455 117.541 92.44 117.471 92.42C117.411 92.4 117.346 92.38 117.276 92.36C117.056 92.44 116.816 92.605 116.556 92.855C116.306 93.115 116.181 93.34 116.181 93.53ZM122.358 88.565C122.358 87.955 122.493 87.45 122.763 87.05C123.033 86.64 123.408 86.255 123.888 85.895C124.028 85.795 124.263 85.71 124.593 85.64C124.923 85.56 125.213 85.52 125.463 85.52C125.763 85.52 126.078 85.585 126.408 85.715C126.748 85.835 127.023 85.975 127.233 86.135C127.603 86.405 127.858 86.72 127.998 87.08C128.138 87.43 128.208 87.85 128.208 88.34C128.208 88.55 128.088 88.755 127.848 88.955C127.618 89.145 127.368 89.24 127.098 89.24L126.528 89.225C126.238 89.225 125.823 89.235 125.283 89.255L124.968 89.27C124.748 89.29 124.583 89.3 124.473 89.3C124.313 89.3 124.093 89.28 123.813 89.24C123.853 89.71 124.028 90.08 124.338 90.35C124.648 90.61 124.983 90.74 125.343 90.74C125.973 90.74 126.413 90.615 126.663 90.365C126.873 90.215 127.013 90.12 127.083 90.08C127.153 90.04 127.263 90.02 127.413 90.02C127.573 90.02 127.713 90.095 127.833 90.245C127.953 90.395 128.013 90.545 128.013 90.695C128.013 90.865 127.908 91.04 127.698 91.22C127.498 91.39 127.223 91.57 126.873 91.76C126.683 91.84 126.423 91.91 126.093 91.97C125.763 92.03 125.488 92.06 125.268 92.06C124.918 92.06 124.528 91.96 124.098 91.76C123.668 91.55 123.348 91.32 123.138 91.07C122.928 90.82 122.743 90.465 122.583 90.005C122.433 89.545 122.358 89.065 122.358 88.565ZM125.343 88.16C126.053 88.16 126.573 88.135 126.903 88.085C126.883 87.795 126.793 87.56 126.633 87.38C126.473 87.19 126.253 87.03 125.973 86.9C125.883 86.86 125.803 86.83 125.733 86.81C125.663 86.79 125.583 86.78 125.493 86.78C125.033 86.78 124.643 86.905 124.323 87.155C124.013 87.405 123.828 87.725 123.768 88.115C124.268 88.145 124.793 88.16 125.343 88.16ZM137.256 88.565C137.656 88.795 137.936 89.025 138.096 89.255C138.256 89.475 138.336 89.765 138.336 90.125C138.336 90.485 138.231 90.805 138.021 91.085C137.811 91.355 137.541 91.565 137.211 91.715C136.971 91.825 136.671 91.91 136.311 91.97C135.961 92.03 135.686 92.06 135.486 92.06C135.136 92.06 134.756 91.995 134.346 91.865C133.936 91.735 133.586 91.55 133.296 91.31C133.016 91.07 132.876 90.79 132.876 90.47C132.876 90.27 132.941 90.115 133.071 90.005C133.201 89.885 133.371 89.825 133.581 89.825C133.751 89.825 133.931 89.945 134.121 90.185C134.311 90.395 134.531 90.555 134.781 90.665C135.041 90.775 135.296 90.83 135.546 90.83C136.496 90.83 136.971 90.615 136.971 90.185C136.971 90.095 136.941 90.01 136.881 89.93C136.821 89.84 136.766 89.78 136.716 89.75C136.626 89.68 136.501 89.62 136.341 89.57C136.181 89.52 136.021 89.48 135.861 89.45C135.701 89.41 135.581 89.38 135.501 89.36C135.421 89.34 135.251 89.305 134.991 89.255C134.741 89.205 134.501 89.12 134.271 89C133.891 88.82 133.581 88.6 133.341 88.34C133.111 88.08 132.996 87.745 132.996 87.335C132.996 87.105 133.051 86.875 133.161 86.645C133.281 86.405 133.441 86.225 133.641 86.105C133.941 85.915 134.271 85.77 134.631 85.67C134.991 85.57 135.326 85.52 135.636 85.52C135.886 85.52 136.166 85.545 136.476 85.595C136.796 85.645 137.026 85.715 137.166 85.805C137.426 85.945 137.616 86.09 137.736 86.24C137.856 86.39 137.916 86.58 137.916 86.81C137.916 86.92 137.891 87.03 137.841 87.14C137.791 87.24 137.731 87.31 137.661 87.35C137.501 87.41 137.361 87.44 137.241 87.44C137.151 87.44 137.076 87.425 137.016 87.395C136.956 87.355 136.901 87.315 136.851 87.275C136.811 87.235 136.786 87.21 136.776 87.2C136.646 87.06 136.501 86.95 136.341 86.87C136.181 86.79 135.946 86.75 135.636 86.75C135.436 86.75 135.241 86.78 135.051 86.84C134.871 86.89 134.731 86.955 134.631 87.035C134.551 87.095 134.496 87.15 134.466 87.2C134.436 87.24 134.421 87.295 134.421 87.365C134.421 87.645 134.701 87.85 135.261 87.98C135.831 88.11 136.131 88.18 136.161 88.19C136.221 88.21 136.386 88.26 136.656 88.34C136.936 88.42 137.136 88.495 137.256 88.565ZM146.559 91.28C146.559 91.5 146.439 91.685 146.199 91.835C145.959 91.985 145.739 92.06 145.539 92.06C145.169 92.06 144.869 92.015 144.639 91.925C144.419 91.825 144.209 91.645 144.009 91.385C143.759 91.615 143.409 91.79 142.959 91.91C142.509 92.02 142.094 92.075 141.714 92.075C141.094 92.075 140.579 91.91 140.169 91.58C139.769 91.24 139.569 90.745 139.569 90.095C139.569 89.815 139.654 89.535 139.824 89.255C139.994 88.965 140.204 88.735 140.454 88.565C140.724 88.385 141.029 88.265 141.369 88.205C141.709 88.135 142.104 88.1 142.554 88.1C142.764 88.1 143.014 88.14 143.304 88.22C143.594 88.3 143.824 88.385 143.994 88.475V88.235C143.994 87.695 143.859 87.325 143.589 87.125C143.329 86.915 142.909 86.81 142.329 86.81C142.149 86.81 141.984 86.84 141.834 86.9C141.694 86.95 141.529 87.025 141.339 87.125C141.159 87.225 140.989 87.275 140.829 87.275C140.689 87.275 140.554 87.22 140.424 87.11C140.294 86.99 140.229 86.865 140.229 86.735C140.229 86.315 140.489 86.01 141.009 85.82C141.539 85.62 142.079 85.52 142.629 85.52C142.909 85.52 143.229 85.58 143.589 85.7C143.949 85.81 144.254 85.965 144.504 86.165C144.804 86.415 145.034 86.715 145.194 87.065C145.364 87.415 145.449 87.795 145.449 88.205C145.449 88.335 145.439 88.53 145.419 88.79C145.399 89.07 145.389 89.31 145.389 89.51L145.374 89.915C145.354 90.135 145.344 90.31 145.344 90.44C145.344 90.56 145.384 90.665 145.464 90.755C145.554 90.835 145.659 90.875 145.779 90.875L146.199 90.86C146.309 90.86 146.394 90.905 146.454 90.995C146.524 91.075 146.559 91.17 146.559 91.28ZM141.714 90.89C142.144 90.89 142.504 90.845 142.794 90.755C143.084 90.665 143.434 90.5 143.844 90.26C143.884 90.09 143.909 89.865 143.919 89.585C143.369 89.325 142.914 89.195 142.554 89.195C142.214 89.195 141.939 89.21 141.729 89.24C141.519 89.26 141.329 89.345 141.159 89.495C140.989 89.645 140.904 89.885 140.904 90.215C140.904 90.405 140.994 90.565 141.174 90.695C141.364 90.825 141.544 90.89 141.714 90.89ZM148.292 82.37C148.642 82.4 148.947 82.495 149.207 82.655C149.467 82.805 149.597 83.035 149.597 83.345C149.597 83.575 149.487 83.76 149.267 83.9C149.057 84.03 148.802 84.095 148.502 84.095C148.212 84.095 148.012 84.02 147.902 83.87C147.792 83.72 147.737 83.565 147.737 83.405C147.737 83.105 147.767 82.855 147.827 82.655C147.897 82.455 148.052 82.36 148.292 82.37ZM149.492 89.015V89.45C149.492 89.84 149.502 90.21 149.522 90.56C149.552 90.9 149.587 91.245 149.627 91.595C149.617 91.695 149.542 91.8 149.402 91.91C149.262 92.01 149.137 92.06 149.027 92.06C148.837 92.06 148.642 92.025 148.442 91.955C148.252 91.875 148.137 91.78 148.097 91.67C148.037 91.35 148.007 91.065 148.007 90.815C148.007 89.995 147.982 89.075 147.932 88.055C147.892 87.155 147.872 86.525 147.872 86.165C147.872 85.985 147.962 85.83 148.142 85.7C148.322 85.57 148.512 85.505 148.712 85.505C149.002 85.505 149.202 85.57 149.312 85.7C149.432 85.83 149.492 86.035 149.492 86.315V89.015ZM158.205 90.845C158.255 90.865 158.335 90.89 158.445 90.92C158.555 90.95 158.635 90.98 158.685 91.01C158.735 91.04 158.76 91.085 158.76 91.145C158.77 91.385 158.68 91.585 158.49 91.745C158.31 91.895 158.095 91.97 157.845 91.97C157.455 91.97 157.15 91.865 156.93 91.655C156.71 91.445 156.55 91.125 156.45 90.695C156.41 90.525 156.39 90.29 156.39 89.99C156.39 89.82 156.4 89.545 156.42 89.165C156.44 88.765 156.45 88.445 156.45 88.205C156.45 87.855 156.35 87.55 156.15 87.29C155.96 87.02 155.69 86.885 155.34 86.885C155.13 86.885 154.91 86.95 154.68 87.08C154.45 87.2 154.29 87.35 154.2 87.53C154.05 87.82 153.945 88.135 153.885 88.475C153.775 89.075 153.72 89.7 153.72 90.35C153.72 90.66 153.725 90.9 153.735 91.07C153.735 91.11 153.735 91.19 153.735 91.31C153.745 91.42 153.735 91.525 153.705 91.625C153.685 91.715 153.645 91.8 153.585 91.88C153.535 91.93 153.455 91.97 153.345 92C153.245 92.04 153.15 92.06 153.06 92.06C152.92 92.06 152.745 92 152.535 91.88C152.325 91.76 152.205 91.625 152.175 91.475L152.16 91.22C152.16 91.13 152.17 91.025 152.19 90.905C152.31 90.205 152.37 89.595 152.37 89.075C152.37 88.845 152.365 88.665 152.355 88.535L152.34 87.83C152.34 87.59 152.28 87.36 152.16 87.14C152.04 86.91 151.9 86.795 151.74 86.795C151.69 86.795 151.62 86.815 151.53 86.855C151.44 86.885 151.365 86.9 151.305 86.9C151.205 86.9 151.095 86.85 150.975 86.75C150.865 86.65 150.81 86.545 150.81 86.435C150.81 86.225 150.88 86.055 151.02 85.925C151.17 85.805 151.315 85.71 151.455 85.64C151.605 85.57 151.775 85.535 151.965 85.535C152.125 85.535 152.255 85.55 152.355 85.58C152.455 85.61 152.59 85.675 152.76 85.775C152.85 85.825 152.955 85.935 153.075 86.105C153.195 86.275 153.295 86.515 153.375 86.825C153.635 86.345 153.955 86.01 154.335 85.82C154.725 85.62 155.22 85.52 155.82 85.52C156.05 85.52 156.295 85.595 156.555 85.745C156.825 85.895 157.055 86.07 157.245 86.27C157.425 86.49 157.575 86.765 157.695 87.095C157.815 87.415 157.875 87.705 157.875 87.965C157.875 88.115 157.865 88.36 157.845 88.7C157.815 88.97 157.8 89.255 157.8 89.555C157.8 90.255 157.935 90.685 158.205 90.845ZM161.932 91.175C161.932 91.425 161.832 91.66 161.632 91.88C161.432 92.09 161.212 92.195 160.972 92.195C160.692 92.195 160.437 92.12 160.207 91.97C159.977 91.81 159.862 91.61 159.862 91.37C159.862 90.99 159.932 90.71 160.072 90.53C160.222 90.35 160.442 90.26 160.732 90.26C161.072 90.26 161.357 90.345 161.587 90.515C161.817 90.675 161.932 90.895 161.932 91.175ZM174.077 84.785C173.647 84.475 173.277 84.25 172.967 84.11C172.657 83.96 172.297 83.885 171.887 83.885C171.067 83.885 170.362 84.095 169.772 84.515C169.322 84.845 168.987 85.275 168.767 85.805C168.547 86.335 168.437 86.93 168.437 87.59C168.437 88.22 168.582 88.775 168.872 89.255C169.162 89.725 169.537 90.085 169.997 90.335C170.457 90.585 170.937 90.71 171.437 90.71C171.937 90.71 172.367 90.635 172.727 90.485C173.097 90.325 173.392 90.12 173.612 89.87C173.952 89.44 174.122 88.87 174.122 88.16C174.122 88.06 174.042 87.99 173.882 87.95C173.722 87.91 173.492 87.89 173.192 87.89L172.112 87.905C171.822 87.905 171.592 87.85 171.422 87.74C171.252 87.63 171.167 87.49 171.167 87.32C171.167 87.08 171.247 86.905 171.407 86.795C171.567 86.675 171.782 86.615 172.052 86.615C172.372 86.615 172.802 86.635 173.342 86.675C173.882 86.715 174.272 86.735 174.512 86.735C174.862 86.735 175.142 86.845 175.352 87.065C175.572 87.285 175.682 87.605 175.682 88.025C175.682 88.415 175.597 88.87 175.427 89.39C175.257 89.91 175.017 90.375 174.707 90.785C174.407 91.185 173.962 91.49 173.372 91.7C172.792 91.9 172.147 92 171.437 92C170.847 92 170.277 91.905 169.727 91.715C169.177 91.525 168.717 91.26 168.347 90.92C167.887 90.49 167.522 89.98 167.252 89.39C166.992 88.79 166.862 88.195 166.862 87.605C166.862 86.745 167.062 85.91 167.462 85.1C167.872 84.28 168.422 83.645 169.112 83.195C169.412 82.995 169.832 82.83 170.372 82.7C170.912 82.57 171.407 82.505 171.857 82.505C172.557 82.505 173.172 82.615 173.702 82.835C174.232 83.045 174.637 83.35 174.917 83.75C175.037 83.93 175.097 84.09 175.097 84.23C175.097 84.39 175.027 84.54 174.887 84.68C174.747 84.82 174.607 84.89 174.467 84.89C174.407 84.89 174.337 84.88 174.257 84.86C174.177 84.84 174.117 84.815 174.077 84.785ZM182.964 92.06C182.624 92.06 182.364 92.01 182.184 91.91C182.004 91.8 181.809 91.6 181.599 91.31C181.339 91.54 180.949 91.725 180.429 91.865C179.919 92.005 179.479 92.075 179.109 92.075C178.499 92.075 178.004 91.91 177.624 91.58C177.254 91.24 177.069 90.745 177.069 90.095C177.069 89.815 177.144 89.56 177.294 89.33C177.454 89.09 177.659 88.88 177.909 88.7C178.189 88.51 178.519 88.36 178.899 88.25C179.289 88.14 179.644 88.085 179.964 88.085C180.504 88.085 180.984 88.135 181.404 88.235V88.22C181.404 87.68 181.269 87.31 180.999 87.11C180.739 86.9 180.319 86.795 179.739 86.795C179.369 86.795 179.049 86.96 178.779 87.29C178.679 87.42 178.469 87.485 178.149 87.485C177.989 87.485 177.869 87.42 177.789 87.29C177.719 87.15 177.684 87.01 177.684 86.87C177.684 86.58 177.804 86.33 178.044 86.12C178.294 85.91 178.594 85.755 178.944 85.655C179.294 85.545 179.619 85.49 179.919 85.49C180.209 85.49 180.554 85.55 180.954 85.67C181.354 85.79 181.679 85.95 181.929 86.15C182.229 86.41 182.459 86.715 182.619 87.065C182.789 87.405 182.874 87.78 182.874 88.19C182.874 88.32 182.864 88.515 182.844 88.775C182.824 89.075 182.814 89.32 182.814 89.51C182.814 89.6 182.804 89.715 182.784 89.855C182.764 90.035 182.754 90.185 182.754 90.305C182.754 90.435 182.794 90.56 182.874 90.68C182.954 90.8 183.064 90.9 183.204 90.98C183.334 91.05 183.419 91.125 183.459 91.205C183.499 91.285 183.519 91.375 183.519 91.475C183.519 91.575 183.454 91.7 183.324 91.85C183.204 91.99 183.084 92.06 182.964 92.06ZM179.964 89.195C179.574 89.195 179.229 89.27 178.929 89.42C178.629 89.57 178.479 89.835 178.479 90.215C178.479 90.405 178.544 90.565 178.674 90.695C178.814 90.825 178.964 90.89 179.124 90.89C179.554 90.89 179.914 90.845 180.204 90.755C180.494 90.665 180.844 90.5 181.254 90.26C181.304 90.1 181.334 89.875 181.344 89.585C181.344 89.475 181.349 89.39 181.359 89.33C180.819 89.24 180.354 89.195 179.964 89.195ZM190.407 88.235C190.407 88.695 190.292 89.085 190.062 89.405C189.832 89.715 189.527 89.99 189.147 90.23C188.627 90.51 188.022 90.655 187.332 90.665C187.292 90.785 187.272 90.91 187.272 91.04C187.272 91.16 187.337 91.25 187.467 91.31C187.607 91.36 187.852 91.4 188.202 91.43C188.492 91.45 188.817 91.515 189.177 91.625C189.547 91.725 189.837 91.84 190.047 91.97C190.307 92.16 190.487 92.365 190.587 92.585C190.697 92.805 190.752 93.08 190.752 93.41C190.752 93.84 190.552 94.2 190.152 94.49C189.762 94.79 189.302 95.01 188.772 95.15C188.242 95.29 187.777 95.36 187.377 95.36C186.897 95.36 186.487 95.3 186.147 95.18C185.817 95.07 185.502 94.915 185.202 94.715C184.992 94.565 184.827 94.375 184.707 94.145C184.587 93.915 184.527 93.675 184.527 93.425C184.527 93.175 184.607 92.935 184.767 92.705C184.937 92.475 185.142 92.275 185.382 92.105C185.622 91.945 185.847 91.835 186.057 91.775C185.977 91.675 185.917 91.59 185.877 91.52C185.847 91.44 185.832 91.35 185.832 91.25C185.832 90.91 185.917 90.625 186.087 90.395C185.607 90.235 185.227 89.95 184.947 89.54C184.677 89.13 184.542 88.65 184.542 88.1C184.542 87.74 184.627 87.415 184.797 87.125C184.967 86.825 185.202 86.54 185.502 86.27C186.012 85.81 186.717 85.58 187.617 85.58C187.737 85.58 187.902 85.6 188.112 85.64C188.322 85.68 188.527 85.735 188.727 85.805C189.047 85.665 189.422 85.52 189.852 85.37C190.282 85.22 190.572 85.145 190.722 85.145C190.952 85.145 191.122 85.185 191.232 85.265C191.352 85.335 191.412 85.495 191.412 85.745C191.412 85.975 191.277 86.14 191.007 86.24C190.747 86.34 190.352 86.435 189.822 86.525C190.212 86.995 190.407 87.565 190.407 88.235ZM187.287 89.435C187.867 89.435 188.287 89.315 188.547 89.075C188.817 88.835 188.952 88.475 188.952 87.995C188.952 87.205 188.487 86.81 187.557 86.81C187.197 86.81 186.912 86.85 186.702 86.93C186.502 87.01 186.337 87.145 186.207 87.335C186.027 87.575 185.937 87.9 185.937 88.31C185.937 88.63 186.067 88.9 186.327 89.12C186.597 89.33 186.917 89.435 187.287 89.435ZM185.937 93.53C185.937 93.7 186.092 93.845 186.402 93.965C186.722 94.095 187.062 94.16 187.422 94.16C187.822 94.16 188.232 94.085 188.652 93.935C189.082 93.795 189.297 93.605 189.297 93.365C189.297 93.015 188.987 92.79 188.367 92.69C188.147 92.65 187.827 92.575 187.407 92.465C187.357 92.455 187.297 92.44 187.227 92.42C187.167 92.4 187.102 92.38 187.032 92.36C186.812 92.44 186.572 92.605 186.312 92.855C186.062 93.115 185.937 93.34 185.937 93.53ZM199.104 90.845C199.154 90.865 199.234 90.89 199.344 90.92C199.454 90.95 199.534 90.98 199.584 91.01C199.634 91.04 199.659 91.085 199.659 91.145C199.669 91.385 199.579 91.585 199.389 91.745C199.209 91.895 198.994 91.97 198.744 91.97C198.354 91.97 198.049 91.865 197.829 91.655C197.609 91.445 197.449 91.125 197.349 90.695C197.309 90.525 197.289 90.29 197.289 89.99C197.289 89.82 197.299 89.545 197.319 89.165C197.339 88.765 197.349 88.445 197.349 88.205C197.349 87.775 197.304 87.45 197.214 87.23C197.124 87 196.909 86.885 196.569 86.885C196.219 86.885 195.904 87.025 195.624 87.305C195.354 87.585 195.124 88.005 194.934 88.565C194.674 89.345 194.529 90.38 194.499 91.67C194.499 91.74 194.424 91.825 194.274 91.925C194.134 92.015 193.964 92.06 193.764 92.06C193.394 92.06 193.164 91.865 193.074 91.475L193.059 91.22C193.059 91.13 193.069 91.025 193.089 90.905C193.209 90.205 193.269 89.595 193.269 89.075C193.269 88.845 193.264 88.665 193.254 88.535L193.239 87.83C193.239 87.59 193.179 87.36 193.059 87.14C192.939 86.91 192.799 86.795 192.639 86.795C192.589 86.795 192.519 86.815 192.429 86.855C192.339 86.885 192.264 86.9 192.204 86.9C192.104 86.9 191.994 86.85 191.874 86.75C191.764 86.65 191.709 86.545 191.709 86.435C191.709 86.225 191.779 86.055 191.919 85.925C192.069 85.805 192.214 85.71 192.354 85.64C192.504 85.57 192.674 85.535 192.864 85.535C193.024 85.535 193.154 85.55 193.254 85.58C193.354 85.61 193.489 85.675 193.659 85.775C193.759 85.825 193.874 85.965 194.004 86.195C194.134 86.425 194.234 86.75 194.304 87.17C194.504 86.8 194.839 86.41 195.309 86C195.659 85.68 196.164 85.52 196.824 85.52C197.424 85.52 197.899 85.74 198.249 86.18C198.599 86.61 198.774 87.205 198.774 87.965C198.774 88.115 198.764 88.36 198.744 88.7C198.714 88.97 198.699 89.255 198.699 89.555C198.699 90.255 198.834 90.685 199.104 90.845ZM200.654 88.61C200.654 88.25 200.719 87.915 200.849 87.605C200.979 87.285 201.169 86.955 201.419 86.615C201.669 86.275 202.014 86.01 202.454 85.82C202.894 85.62 203.374 85.52 203.894 85.52C204.294 85.52 204.679 85.605 205.049 85.775C205.429 85.935 205.769 86.135 206.069 86.375C206.109 86.445 206.179 86.575 206.279 86.765C206.379 86.945 206.449 87.11 206.489 87.26C206.539 87.41 206.564 87.565 206.564 87.725C206.564 88.395 206.319 88.845 205.829 89.075C205.339 89.295 204.719 89.405 203.969 89.405C203.219 89.405 202.609 89.355 202.139 89.255C202.159 89.445 202.209 89.635 202.289 89.825C202.369 90.015 202.464 90.16 202.574 90.26C202.774 90.45 202.969 90.575 203.159 90.635C203.359 90.685 203.624 90.71 203.954 90.71C204.454 90.71 204.844 90.615 205.124 90.425C205.384 90.255 205.584 90.17 205.724 90.17C205.914 90.17 206.059 90.23 206.159 90.35C206.259 90.46 206.309 90.605 206.309 90.785C206.309 91.165 206.064 91.475 205.574 91.715C205.094 91.955 204.549 92.075 203.939 92.075C203.459 92.075 202.984 91.99 202.514 91.82C202.044 91.65 201.669 91.41 201.389 91.1C201.199 90.78 201.029 90.39 200.879 89.93C200.729 89.47 200.654 89.03 200.654 88.61ZM203.954 86.75C203.734 86.75 203.504 86.79 203.264 86.87C203.034 86.94 202.854 87.05 202.724 87.2C202.564 87.37 202.444 87.525 202.364 87.665C202.294 87.805 202.249 87.98 202.229 88.19C202.339 88.19 202.444 88.195 202.544 88.205C202.644 88.215 202.739 88.225 202.829 88.235C203.269 88.275 203.599 88.295 203.819 88.295C204.259 88.295 204.594 88.23 204.824 88.1C205.064 87.97 205.184 87.795 205.184 87.575C205.184 87.365 205.049 87.175 204.779 87.005C204.519 86.835 204.244 86.75 203.954 86.75ZM217.365 82.61C217.365 82.71 217.34 82.985 217.29 83.435C217.18 84.535 217.125 85.65 217.125 86.78C217.125 87.77 217.14 88.525 217.17 89.045C217.2 89.565 217.275 89.965 217.395 90.245C217.515 90.515 217.7 90.65 217.95 90.65C218.43 90.65 218.67 90.81 218.67 91.13C218.67 91.34 218.565 91.52 218.355 91.67C218.145 91.81 217.915 91.88 217.665 91.88C217.365 91.88 217.085 91.81 216.825 91.67C216.565 91.53 216.36 91.315 216.21 91.025C216 91.335 215.695 91.585 215.295 91.775C214.905 91.955 214.525 92.045 214.155 92.045C213.585 92.045 213.08 91.925 212.64 91.685C212.2 91.445 211.86 91.12 211.62 90.71C211.38 90.29 211.26 89.83 211.26 89.33C211.26 88.85 211.315 88.39 211.425 87.95C211.545 87.5 211.705 87.13 211.905 86.84C212.175 86.46 212.535 86.16 212.985 85.94C213.445 85.71 213.895 85.595 214.335 85.595C214.605 85.595 214.86 85.65 215.1 85.76C215.34 85.86 215.55 85.985 215.73 86.135C215.73 85.465 215.725 85.045 215.715 84.875V84.56C215.715 83.63 215.775 82.95 215.895 82.52C216.005 82.1 216.27 81.89 216.69 81.89C216.92 81.89 217.09 81.94 217.2 82.04C217.31 82.14 217.365 82.33 217.365 82.61ZM212.745 89.3C212.745 89.76 212.875 90.13 213.135 90.41C213.405 90.69 213.725 90.83 214.095 90.83C214.625 90.83 215.015 90.665 215.265 90.335C215.525 90.005 215.655 89.58 215.655 89.06L215.64 87.575C215.25 87.145 214.845 86.93 214.425 86.93C214.135 86.93 213.86 87.005 213.6 87.155C213.35 87.295 213.15 87.51 213 87.8C212.83 88.13 212.745 88.63 212.745 89.3ZM219.371 86.945C219.291 86.945 219.216 86.915 219.146 86.855C219.086 86.785 219.056 86.705 219.056 86.615C219.056 86.385 219.156 86.17 219.356 85.97C219.416 85.94 219.536 85.89 219.716 85.82C219.896 85.75 220.056 85.715 220.196 85.715C220.576 85.715 220.886 85.82 221.126 86.03C221.366 86.23 221.486 86.52 221.486 86.9C221.486 87.01 221.466 87.245 221.426 87.605C221.386 88.025 221.366 88.35 221.366 88.58C221.366 89.28 221.461 89.845 221.651 90.275C221.721 90.415 221.831 90.525 221.981 90.605C222.131 90.685 222.266 90.725 222.386 90.725C222.676 90.725 222.911 90.675 223.091 90.575C223.271 90.475 223.466 90.315 223.676 90.095C223.886 89.875 224.021 89.625 224.081 89.345C224.151 89.065 224.201 88.68 224.231 88.19C224.251 87.87 224.271 87.635 224.291 87.485C224.341 87.005 224.366 86.595 224.366 86.255C224.366 86.035 224.426 85.855 224.546 85.715C224.666 85.565 224.831 85.49 225.041 85.49C225.161 85.49 225.296 85.53 225.446 85.61C225.606 85.68 225.711 85.765 225.761 85.865C225.821 85.965 225.851 86.13 225.851 86.36C225.851 86.48 225.836 86.595 225.806 86.705C225.736 86.955 225.701 87.255 225.701 87.605L225.716 88.385C225.716 89.095 225.766 89.62 225.866 89.96C225.916 90.12 225.986 90.285 226.076 90.455C226.166 90.615 226.251 90.75 226.331 90.86C226.531 91.08 226.661 91.235 226.721 91.325C226.781 91.405 226.811 91.485 226.811 91.565C226.811 91.685 226.751 91.8 226.631 91.91C226.521 92.01 226.401 92.06 226.271 92.06C225.901 92.06 225.581 91.935 225.311 91.685C225.041 91.435 224.841 91.11 224.711 90.71C224.371 91.1 224.056 91.415 223.766 91.655C223.566 91.795 223.321 91.9 223.031 91.97C222.741 92.03 222.451 92.06 222.161 92.06C221.771 92.06 221.376 91.9 220.976 91.58C220.576 91.26 220.306 90.89 220.166 90.47C220.156 90.45 220.126 90.37 220.076 90.23C220.036 90.09 220.016 89.88 220.016 89.6C220.016 89.23 220.036 88.765 220.076 88.205C220.106 87.845 220.121 87.515 220.121 87.215C220.121 87.125 220.086 87.05 220.016 86.99C219.956 86.93 219.886 86.9 219.806 86.9C219.746 86.9 219.676 86.91 219.596 86.93C219.526 86.94 219.451 86.945 219.371 86.945ZM231.316 86.78C231.176 86.76 231.061 86.705 230.971 86.615C230.891 86.515 230.851 86.395 230.851 86.255C230.851 86.075 230.921 85.925 231.061 85.805C231.091 85.775 231.141 85.75 231.211 85.73C231.281 85.7 231.336 85.675 231.376 85.655C231.596 85.585 231.736 85.53 231.796 85.49C232.026 85.35 232.181 85.12 232.261 84.8C232.341 84.42 232.391 84.16 232.411 84.02C232.431 83.8 232.501 83.635 232.621 83.525C232.751 83.405 232.911 83.345 233.101 83.345C233.351 83.345 233.526 83.41 233.626 83.54C233.726 83.67 233.776 83.91 233.776 84.26C233.776 84.72 233.666 85.155 233.446 85.565C233.586 85.565 233.816 85.555 234.136 85.535C234.616 85.515 234.951 85.505 235.141 85.505C235.311 85.505 235.456 85.55 235.576 85.64C235.706 85.72 235.771 85.84 235.771 86C235.771 86.38 235.596 86.605 235.246 86.675C234.926 86.765 234.346 86.82 233.506 86.84C233.436 87.82 233.401 88.595 233.401 89.165C233.401 89.515 233.416 89.765 233.446 89.915C233.506 90.225 233.606 90.455 233.746 90.605C233.896 90.745 234.116 90.815 234.406 90.815C234.546 90.815 234.756 90.78 235.036 90.71C235.206 90.66 235.341 90.635 235.441 90.635C235.571 90.635 235.671 90.68 235.741 90.77C235.811 90.86 235.846 90.98 235.846 91.13C235.846 91.4 235.671 91.625 235.321 91.805C234.971 91.975 234.556 92.06 234.076 92.06C233.776 92.06 233.481 91.99 233.191 91.85C232.901 91.7 232.656 91.52 232.456 91.31C232.416 91.29 232.356 91.18 232.276 90.98C232.206 90.78 232.136 90.56 232.066 90.32C232.036 90.2 232.021 89.91 232.021 89.45C232.021 89.01 232.051 88.25 232.111 87.17L232.126 86.84C232.056 86.84 231.926 86.835 231.736 86.825C231.546 86.805 231.406 86.79 231.316 86.78ZM236.777 88.565C236.777 87.955 236.912 87.45 237.182 87.05C237.452 86.64 237.827 86.255 238.307 85.895C238.447 85.795 238.682 85.71 239.012 85.64C239.342 85.56 239.632 85.52 239.882 85.52C240.182 85.52 240.497 85.585 240.827 85.715C241.167 85.835 241.442 85.975 241.652 86.135C242.022 86.405 242.277 86.72 242.417 87.08C242.557 87.43 242.627 87.85 242.627 88.34C242.627 88.55 242.507 88.755 242.267 88.955C242.037 89.145 241.787 89.24 241.517 89.24L240.947 89.225C240.657 89.225 240.242 89.235 239.702 89.255L239.387 89.27C239.167 89.29 239.002 89.3 238.892 89.3C238.732 89.3 238.512 89.28 238.232 89.24C238.272 89.71 238.447 90.08 238.757 90.35C239.067 90.61 239.402 90.74 239.762 90.74C240.392 90.74 240.832 90.615 241.082 90.365C241.292 90.215 241.432 90.12 241.502 90.08C241.572 90.04 241.682 90.02 241.832 90.02C241.992 90.02 242.132 90.095 242.252 90.245C242.372 90.395 242.432 90.545 242.432 90.695C242.432 90.865 242.327 91.04 242.117 91.22C241.917 91.39 241.642 91.57 241.292 91.76C241.102 91.84 240.842 91.91 240.512 91.97C240.182 92.03 239.907 92.06 239.687 92.06C239.337 92.06 238.947 91.96 238.517 91.76C238.087 91.55 237.767 91.32 237.557 91.07C237.347 90.82 237.162 90.465 237.002 90.005C236.852 89.545 236.777 89.065 236.777 88.565ZM239.762 88.16C240.472 88.16 240.992 88.135 241.322 88.085C241.302 87.795 241.212 87.56 241.052 87.38C240.892 87.19 240.672 87.03 240.392 86.9C240.302 86.86 240.222 86.83 240.152 86.81C240.082 86.79 240.002 86.78 239.912 86.78C239.452 86.78 239.062 86.905 238.742 87.155C238.432 87.405 238.247 87.725 238.187 88.115C238.687 88.145 239.212 88.16 239.762 88.16ZM253.121 89.36L253.181 88.205C253.181 87.785 253.131 87.475 253.031 87.275C252.941 87.075 252.731 86.975 252.401 86.975C251.771 86.975 251.296 87.33 250.976 88.04C250.656 88.74 250.496 89.765 250.496 91.115C250.496 91.175 250.496 91.3 250.496 91.49C250.506 91.67 250.476 91.81 250.406 91.91C250.346 92.01 250.236 92.06 250.076 92.06C249.676 92.06 249.406 91.95 249.266 91.73C249.126 91.51 249.056 91.185 249.056 90.755C249.056 90.535 249.086 90.085 249.146 89.405C249.196 88.925 249.221 88.59 249.221 88.4C249.221 87.9 249.146 87.535 248.996 87.305C248.846 87.075 248.586 86.96 248.216 86.96C247.786 86.96 247.431 87.175 247.151 87.605C246.871 88.035 246.666 88.57 246.536 89.21C246.406 89.84 246.341 90.465 246.341 91.085C246.341 91.375 246.291 91.61 246.191 91.79C246.101 91.97 245.926 92.06 245.666 92.06C245.476 92.06 245.286 92.01 245.096 91.91C244.906 91.8 244.811 91.655 244.811 91.475C244.811 91.285 244.831 91.095 244.871 90.905C244.921 90.595 244.961 90.14 244.991 89.54C245.021 88.94 245.036 88.375 245.036 87.845C245.036 87.605 244.976 87.375 244.856 87.155C244.746 86.925 244.611 86.81 244.451 86.81C244.411 86.81 244.336 86.83 244.226 86.87C244.126 86.91 244.051 86.93 244.001 86.93C243.871 86.93 243.751 86.87 243.641 86.75C243.541 86.63 243.491 86.53 243.491 86.45C243.491 86.2 243.611 85.99 243.851 85.82C244.101 85.64 244.361 85.55 244.631 85.55C245.001 85.55 245.321 85.675 245.591 85.925C245.871 86.175 246.081 86.51 246.221 86.93C246.461 86.5 246.741 86.165 247.061 85.925C247.391 85.675 247.791 85.55 248.261 85.55C249.121 85.55 249.746 85.935 250.136 86.705C250.366 86.335 250.721 86.05 251.201 85.85C251.691 85.65 252.171 85.55 252.641 85.55C252.981 85.55 253.306 85.655 253.616 85.865C253.926 86.065 254.171 86.335 254.351 86.675C254.541 87.005 254.636 87.35 254.636 87.71C254.636 87.94 254.611 88.445 254.561 89.225C254.551 89.355 254.541 89.5 254.531 89.66C254.521 89.81 254.516 89.97 254.516 90.14C254.516 90.35 254.566 90.52 254.666 90.65C254.776 90.78 254.916 90.86 255.086 90.89C255.426 90.97 255.596 91.11 255.596 91.31C255.596 91.54 255.491 91.725 255.281 91.865C255.071 91.995 254.836 92.06 254.576 92.06C254.086 92.06 253.711 91.92 253.451 91.64C253.201 91.35 253.076 90.935 253.076 90.395L253.121 89.36ZM257.018 86.78C256.928 86.78 256.843 86.79 256.763 86.81C256.683 86.82 256.603 86.825 256.523 86.825C256.413 86.825 256.308 86.775 256.208 86.675C256.118 86.575 256.073 86.485 256.073 86.405C256.073 86.145 256.203 85.945 256.463 85.805C256.723 85.655 256.988 85.58 257.258 85.58C257.488 85.58 257.723 85.66 257.963 85.82C258.213 85.97 258.398 86.165 258.518 86.405C258.778 86.095 259.098 85.87 259.478 85.73C259.858 85.59 260.253 85.52 260.663 85.52C261.123 85.52 261.548 85.665 261.938 85.955C262.338 86.245 262.653 86.615 262.883 87.065C263.113 87.505 263.228 87.945 263.228 88.385C263.228 88.815 263.183 89.2 263.093 89.54C263.003 89.87 262.843 90.205 262.613 90.545C262.353 90.905 262.003 91.2 261.563 91.43C261.133 91.66 260.618 91.775 260.018 91.775C259.858 91.775 259.663 91.735 259.433 91.655C259.203 91.565 259.013 91.47 258.863 91.37C258.793 92.05 258.758 92.64 258.758 93.14C258.758 93.44 258.773 93.725 258.803 93.995C258.823 94.315 258.833 94.545 258.833 94.685C258.833 94.905 258.758 95.065 258.608 95.165C258.458 95.275 258.293 95.33 258.113 95.33C257.753 95.33 257.513 95.23 257.393 95.03C257.283 94.84 257.228 94.565 257.228 94.205C257.268 93.345 257.318 92.55 257.378 91.82C257.438 90.92 257.468 89.53 257.468 87.65C257.468 87.47 257.433 87.28 257.363 87.08C257.293 86.88 257.178 86.78 257.018 86.78ZM258.923 89.885C258.973 90.075 259.113 90.235 259.343 90.365C259.583 90.485 259.798 90.545 259.988 90.545C260.558 90.545 260.983 90.39 261.263 90.08C261.473 89.86 261.608 89.645 261.668 89.435C261.738 89.225 261.773 88.89 261.773 88.43C261.773 88.07 261.703 87.77 261.563 87.53C261.423 87.28 261.253 87.1 261.053 86.99C260.853 86.87 260.663 86.81 260.483 86.81C260.073 86.81 259.738 86.935 259.478 87.185C259.228 87.425 259.068 87.755 258.998 88.175C258.948 88.505 258.923 89.075 258.923 89.885ZM268.812 88.76C268.892 88.81 269.047 88.905 269.277 89.045C269.517 89.175 269.677 89.33 269.757 89.51C269.837 89.69 269.877 89.94 269.877 90.26C269.877 90.62 269.772 90.94 269.562 91.22C269.352 91.49 269.082 91.7 268.752 91.85C268.522 91.95 268.272 92.01 268.002 92.03C267.742 92.05 267.427 92.06 267.057 92.06C266.857 92.06 266.597 92.03 266.277 91.97C265.967 91.91 265.752 91.855 265.632 91.805C265.312 91.625 265.042 91.415 264.822 91.175C264.602 90.935 264.492 90.69 264.492 90.44C264.492 90.24 264.557 90.08 264.687 89.96C264.817 89.84 264.987 89.78 265.197 89.78C265.307 89.78 265.412 89.81 265.512 89.87C265.622 89.92 265.697 89.98 265.737 90.05C265.847 90.31 266.032 90.505 266.292 90.635C266.552 90.765 266.817 90.83 267.087 90.83C268.037 90.83 268.512 90.66 268.512 90.32C268.512 90.23 268.487 90.16 268.437 90.11C268.397 90.05 268.337 89.99 268.257 89.93C268.127 89.84 267.942 89.745 267.702 89.645C267.472 89.545 267.267 89.47 267.087 89.42C266.677 89.33 266.277 89.195 265.887 89.015C265.527 88.835 265.232 88.6 265.002 88.31C264.772 88.01 264.657 87.645 264.657 87.215C264.657 86.955 264.752 86.7 264.942 86.45C265.142 86.19 265.372 85.995 265.632 85.865C265.812 85.795 266.107 85.72 266.517 85.64C266.927 85.56 267.207 85.52 267.357 85.52C267.587 85.52 267.837 85.545 268.107 85.595C268.377 85.635 268.582 85.705 268.722 85.805C268.992 85.965 269.212 86.135 269.382 86.315C269.552 86.485 269.637 86.68 269.637 86.9C269.637 87.01 269.612 87.13 269.562 87.26C269.512 87.38 269.452 87.455 269.382 87.485C269.232 87.555 269.057 87.59 268.857 87.59C268.767 87.59 268.692 87.565 268.632 87.515C268.582 87.465 268.512 87.385 268.422 87.275C268.312 87.105 268.207 87.005 268.107 86.975C267.987 86.945 267.812 86.91 267.582 86.87C267.352 86.82 267.197 86.795 267.117 86.795C266.867 86.795 266.627 86.845 266.397 86.945C266.177 87.045 266.067 87.18 266.067 87.35C266.067 87.55 266.232 87.72 266.562 87.86C266.772 87.96 267.002 88.045 267.252 88.115C267.512 88.185 267.672 88.23 267.732 88.25C267.872 88.28 268.052 88.35 268.272 88.46C268.502 88.57 268.682 88.67 268.812 88.76ZM273.377 91.175C273.377 91.425 273.277 91.66 273.077 91.88C272.877 92.09 272.657 92.195 272.417 92.195C272.137 92.195 271.882 92.12 271.652 91.97C271.422 91.81 271.307 91.61 271.307 91.37C271.307 90.99 271.377 90.71 271.517 90.53C271.667 90.35 271.887 90.26 272.177 90.26C272.517 90.26 272.802 90.345 273.032 90.515C273.262 90.675 273.377 90.895 273.377 91.175ZM285.958 83.675C286.108 83.855 286.213 84 286.273 84.11C286.333 84.22 286.363 84.325 286.363 84.425C286.363 84.545 286.283 84.685 286.123 84.845C285.973 85.005 285.823 85.085 285.673 85.085C285.473 85.085 285.313 85.055 285.193 84.995C285.073 84.935 284.973 84.84 284.893 84.71C284.733 84.47 284.538 84.265 284.308 84.095C284.078 83.915 283.718 83.825 283.228 83.825C282.808 83.825 282.328 83.92 281.788 84.11C281.258 84.3 280.878 84.535 280.648 84.815C280.448 85.065 280.273 85.445 280.123 85.955C279.983 86.465 279.913 86.96 279.913 87.44C279.913 88.02 280.038 88.555 280.288 89.045C280.548 89.525 280.918 89.91 281.398 90.2C281.888 90.49 282.473 90.635 283.153 90.635C283.523 90.635 283.903 90.565 284.293 90.425C284.693 90.275 285.038 90.035 285.328 89.705H285.313C285.493 89.515 285.718 89.42 285.988 89.42C286.148 89.42 286.298 89.49 286.438 89.63C286.588 89.77 286.663 89.91 286.663 90.05C286.663 90.2 286.638 90.335 286.588 90.455C286.548 90.565 286.468 90.69 286.348 90.83C285.938 91.29 285.453 91.605 284.893 91.775C284.333 91.945 283.663 92.03 282.883 92.03C282.193 92.03 281.493 91.865 280.783 91.535C280.083 91.205 279.543 90.805 279.163 90.335C278.963 90.045 278.768 89.63 278.578 89.09C278.398 88.54 278.308 88.095 278.308 87.755C278.308 86.885 278.438 86.06 278.698 85.28C278.968 84.49 279.368 83.86 279.898 83.39C280.248 83.07 280.753 82.83 281.413 82.67C282.073 82.51 282.678 82.43 283.228 82.43C283.898 82.43 284.423 82.525 284.803 82.715C285.193 82.895 285.578 83.215 285.958 83.675ZM293.931 87.185C294.011 87.325 294.076 87.53 294.126 87.8C294.176 88.06 294.201 88.295 294.201 88.505C294.201 88.895 294.116 89.45 293.946 90.17C293.256 91.43 292.236 92.06 290.886 92.06C290.386 92.06 289.876 91.895 289.356 91.565C288.836 91.235 288.476 90.855 288.276 90.425C288.006 89.565 287.871 89.02 287.871 88.79C287.871 88.39 287.956 87.965 288.126 87.515C288.306 87.065 288.531 86.675 288.801 86.345C288.971 86.115 289.276 85.92 289.716 85.76C290.156 85.59 290.556 85.505 290.916 85.505C291.616 85.505 292.211 85.64 292.701 85.91C293.191 86.17 293.601 86.595 293.931 87.185ZM292.626 89.6C292.676 89.47 292.701 89.135 292.701 88.595C292.701 88.305 292.646 88.02 292.536 87.74C292.436 87.46 292.286 87.22 292.086 87.02C292.066 87 292.011 86.97 291.921 86.93C291.831 86.88 291.706 86.835 291.546 86.795C291.396 86.745 291.221 86.72 291.021 86.72C290.461 86.72 290.051 86.945 289.791 87.395C289.531 87.845 289.401 88.355 289.401 88.925C289.401 89.025 289.426 89.215 289.476 89.495C289.536 89.775 289.586 89.95 289.626 90.02C289.656 90.09 289.731 90.19 289.851 90.32C289.981 90.44 290.136 90.55 290.316 90.65C290.506 90.74 290.701 90.785 290.901 90.785C291.351 90.785 291.711 90.68 291.981 90.47C292.251 90.25 292.466 89.96 292.626 89.6ZM302.507 90.845C302.557 90.865 302.637 90.89 302.747 90.92C302.857 90.95 302.937 90.98 302.987 91.01C303.037 91.04 303.062 91.085 303.062 91.145C303.072 91.385 302.982 91.585 302.792 91.745C302.612 91.895 302.397 91.97 302.147 91.97C301.757 91.97 301.452 91.865 301.232 91.655C301.012 91.445 300.852 91.125 300.752 90.695C300.712 90.525 300.692 90.29 300.692 89.99C300.692 89.82 300.702 89.545 300.722 89.165C300.742 88.765 300.752 88.445 300.752 88.205C300.752 87.775 300.707 87.45 300.617 87.23C300.527 87 300.312 86.885 299.972 86.885C299.622 86.885 299.307 87.025 299.027 87.305C298.757 87.585 298.527 88.005 298.337 88.565C298.077 89.345 297.932 90.38 297.902 91.67C297.902 91.74 297.827 91.825 297.677 91.925C297.537 92.015 297.367 92.06 297.167 92.06C296.797 92.06 296.567 91.865 296.477 91.475L296.462 91.22C296.462 91.13 296.472 91.025 296.492 90.905C296.612 90.205 296.672 89.595 296.672 89.075C296.672 88.845 296.667 88.665 296.657 88.535L296.642 87.83C296.642 87.59 296.582 87.36 296.462 87.14C296.342 86.91 296.202 86.795 296.042 86.795C295.992 86.795 295.922 86.815 295.832 86.855C295.742 86.885 295.667 86.9 295.607 86.9C295.507 86.9 295.397 86.85 295.277 86.75C295.167 86.65 295.112 86.545 295.112 86.435C295.112 86.225 295.182 86.055 295.322 85.925C295.472 85.805 295.617 85.71 295.757 85.64C295.907 85.57 296.077 85.535 296.267 85.535C296.427 85.535 296.557 85.55 296.657 85.58C296.757 85.61 296.892 85.675 297.062 85.775C297.162 85.825 297.277 85.965 297.407 86.195C297.537 86.425 297.637 86.75 297.707 87.17C297.907 86.8 298.242 86.41 298.712 86C299.062 85.68 299.567 85.52 300.227 85.52C300.827 85.52 301.302 85.74 301.652 86.18C302.002 86.61 302.177 87.205 302.177 87.965C302.177 88.115 302.167 88.36 302.147 88.7C302.117 88.97 302.102 89.255 302.102 89.555C302.102 90.255 302.237 90.685 302.507 90.845ZM304.178 86.81C304.038 86.79 303.923 86.73 303.833 86.63C303.753 86.53 303.713 86.41 303.713 86.27C303.713 86.2 303.728 86.125 303.758 86.045C303.798 85.965 303.853 85.895 303.923 85.835C304.053 85.705 304.403 85.64 304.973 85.64C305.053 85.25 305.093 84.855 305.093 84.455C305.093 84.305 305.088 84.175 305.078 84.065C305.068 83.955 305.063 83.87 305.063 83.81C305.063 83.59 305.143 83.425 305.303 83.315C305.473 83.205 305.663 83.15 305.873 83.15C306.133 83.15 306.308 83.215 306.398 83.345C306.498 83.475 306.548 83.715 306.548 84.065C306.548 84.585 306.503 85.095 306.413 85.595C306.573 85.595 306.793 85.585 307.073 85.565C307.453 85.545 307.728 85.535 307.898 85.535C308.068 85.535 308.213 85.58 308.333 85.67C308.463 85.75 308.528 85.865 308.528 86.015C308.528 86.405 308.353 86.635 308.003 86.705C307.633 86.795 307.058 86.85 306.278 86.87C306.248 87.26 306.233 87.685 306.233 88.145C306.233 88.865 306.278 89.455 306.368 89.915C306.428 90.235 306.528 90.47 306.668 90.62C306.818 90.76 307.038 90.83 307.328 90.83C307.498 90.83 307.673 90.785 307.853 90.695C307.973 90.625 308.083 90.59 308.183 90.59C308.323 90.59 308.423 90.635 308.483 90.725C308.553 90.815 308.588 90.935 308.588 91.085C308.588 91.365 308.438 91.6 308.138 91.79C307.838 91.97 307.453 92.06 306.983 92.06C306.693 92.06 306.398 91.99 306.098 91.85C305.808 91.71 305.563 91.535 305.363 91.325C305.333 91.295 305.278 91.18 305.198 90.98C305.118 90.78 305.048 90.565 304.988 90.335C304.888 89.865 304.838 89.205 304.838 88.355C304.838 87.985 304.858 87.49 304.898 86.87L304.178 86.81ZM309.877 86.735C309.617 86.555 309.487 86.365 309.487 86.165C309.487 86.025 309.547 85.895 309.667 85.775C309.787 85.655 309.967 85.595 310.207 85.595C310.487 85.595 310.737 85.67 310.957 85.82C311.187 85.96 311.347 86.165 311.437 86.435C311.667 86.165 311.927 85.95 312.217 85.79C312.517 85.63 312.822 85.55 313.132 85.55C313.502 85.55 313.837 85.65 314.137 85.85C314.437 86.05 314.587 86.32 314.587 86.66C314.587 86.85 314.502 87.045 314.332 87.245C314.172 87.445 314.007 87.545 313.837 87.545C313.747 87.545 313.667 87.525 313.597 87.485C313.537 87.435 313.462 87.365 313.372 87.275C313.272 87.175 313.187 87.105 313.117 87.065C313.047 87.015 312.967 86.99 312.877 86.99C312.717 86.99 312.567 87.015 312.427 87.065C312.287 87.115 312.192 87.175 312.142 87.245C311.982 87.495 311.862 87.72 311.782 87.92C311.712 88.12 311.677 88.335 311.677 88.565C311.677 88.735 311.672 88.87 311.662 88.97L311.647 89.825C311.647 89.955 311.652 90.1 311.662 90.26C311.672 90.42 311.682 90.54 311.692 90.62C311.722 90.89 311.737 91.15 311.737 91.4C311.737 91.57 311.672 91.72 311.542 91.85C311.412 91.98 311.252 92.045 311.062 92.045C310.762 92.045 310.542 91.99 310.402 91.88C310.262 91.76 310.192 91.545 310.192 91.235L310.177 90.275C310.167 90.085 310.162 89.815 310.162 89.465L310.177 88.475C310.197 87.995 310.207 87.605 310.207 87.305C310.207 87.195 310.182 87.095 310.132 87.005C310.092 86.915 310.007 86.825 309.877 86.735ZM318.532 81.665C318.762 81.665 318.942 81.7 319.072 81.77C319.202 81.84 319.317 81.955 319.417 82.115C319.517 82.265 319.667 82.435 319.867 82.625C320.067 82.815 320.252 82.97 320.422 83.09C320.642 83.25 320.752 83.41 320.752 83.57C320.752 83.66 320.707 83.75 320.617 83.84C320.527 83.93 320.422 83.975 320.302 83.975C319.962 83.975 319.652 83.86 319.372 83.63C319.102 83.4 318.832 83.095 318.562 82.715C318.352 83.015 318.077 83.3 317.737 83.57C317.397 83.84 317.087 83.975 316.807 83.975C316.647 83.975 316.532 83.935 316.462 83.855C316.392 83.765 316.357 83.67 316.357 83.57C316.357 83.49 316.417 83.375 316.537 83.225C316.667 83.065 316.807 82.925 316.957 82.805C317.237 82.575 317.482 82.325 317.692 82.055C317.782 81.945 317.887 81.855 318.007 81.785C318.127 81.705 318.302 81.665 318.532 81.665ZM321.412 87.185C321.492 87.325 321.557 87.53 321.607 87.8C321.657 88.06 321.682 88.295 321.682 88.505C321.682 88.895 321.597 89.45 321.427 90.17C320.737 91.43 319.717 92.06 318.367 92.06C317.867 92.06 317.357 91.895 316.837 91.565C316.317 91.235 315.957 90.855 315.757 90.425C315.487 89.565 315.352 89.02 315.352 88.79C315.352 88.39 315.437 87.965 315.607 87.515C315.787 87.065 316.012 86.675 316.282 86.345C316.452 86.115 316.757 85.92 317.197 85.76C317.637 85.59 318.037 85.505 318.397 85.505C319.097 85.505 319.692 85.64 320.182 85.91C320.672 86.17 321.082 86.595 321.412 87.185ZM320.107 89.6C320.157 89.47 320.182 89.135 320.182 88.595C320.182 88.305 320.127 88.02 320.017 87.74C319.917 87.46 319.767 87.22 319.567 87.02C319.547 87 319.492 86.97 319.402 86.93C319.312 86.88 319.187 86.835 319.027 86.795C318.877 86.745 318.702 86.72 318.502 86.72C317.942 86.72 317.532 86.945 317.272 87.395C317.012 87.845 316.882 88.355 316.882 88.925C316.882 89.025 316.907 89.215 316.957 89.495C317.017 89.775 317.067 89.95 317.107 90.02C317.137 90.09 317.212 90.19 317.332 90.32C317.462 90.44 317.617 90.55 317.797 90.65C317.987 90.74 318.182 90.785 318.382 90.785C318.832 90.785 319.192 90.68 319.462 90.47C319.732 90.25 319.947 89.96 320.107 89.6ZM324.828 89.675C324.828 90.055 324.883 90.35 324.993 90.56C325.113 90.76 325.263 90.86 325.443 90.86C325.543 90.86 325.638 90.855 325.728 90.845C325.818 90.825 325.908 90.815 325.998 90.815C326.098 90.815 326.183 90.865 326.253 90.965C326.333 91.065 326.373 91.175 326.373 91.295C326.373 91.535 326.258 91.725 326.028 91.865C325.808 91.995 325.508 92.06 325.128 92.06C324.858 92.06 324.583 91.98 324.303 91.82C324.033 91.65 323.808 91.39 323.628 91.04C323.448 90.68 323.358 90.235 323.358 89.705C323.358 88.565 323.378 87.6 323.418 86.81C323.468 85.87 323.493 84.685 323.493 83.255C323.493 82.805 323.518 82.49 323.568 82.31C323.628 82.17 323.723 82.065 323.853 81.995C323.993 81.915 324.138 81.875 324.288 81.875C324.438 81.875 324.568 81.9 324.678 81.95C324.798 82 324.878 82.08 324.918 82.19C324.958 82.31 324.983 82.43 324.993 82.55C325.013 82.66 325.023 82.82 325.023 83.03C325.023 83.44 325.008 83.835 324.978 84.215C324.958 84.675 324.948 85.01 324.948 85.22C324.868 86.98 324.828 88.465 324.828 89.675ZM327.246 88.565C327.246 87.955 327.381 87.45 327.651 87.05C327.921 86.64 328.296 86.255 328.776 85.895C328.916 85.795 329.151 85.71 329.481 85.64C329.811 85.56 330.101 85.52 330.351 85.52C330.651 85.52 330.966 85.585 331.296 85.715C331.636 85.835 331.911 85.975 332.121 86.135C332.491 86.405 332.746 86.72 332.886 87.08C333.026 87.43 333.096 87.85 333.096 88.34C333.096 88.55 332.976 88.755 332.736 88.955C332.506 89.145 332.256 89.24 331.986 89.24L331.416 89.225C331.126 89.225 330.711 89.235 330.171 89.255L329.856 89.27C329.636 89.29 329.471 89.3 329.361 89.3C329.201 89.3 328.981 89.28 328.701 89.24C328.741 89.71 328.916 90.08 329.226 90.35C329.536 90.61 329.871 90.74 330.231 90.74C330.861 90.74 331.301 90.615 331.551 90.365C331.761 90.215 331.901 90.12 331.971 90.08C332.041 90.04 332.151 90.02 332.301 90.02C332.461 90.02 332.601 90.095 332.721 90.245C332.841 90.395 332.901 90.545 332.901 90.695C332.901 90.865 332.796 91.04 332.586 91.22C332.386 91.39 332.111 91.57 331.761 91.76C331.571 91.84 331.311 91.91 330.981 91.97C330.651 92.03 330.376 92.06 330.156 92.06C329.806 92.06 329.416 91.96 328.986 91.76C328.556 91.55 328.236 91.32 328.026 91.07C327.816 90.82 327.631 90.465 327.471 90.005C327.321 89.545 327.246 89.065 327.246 88.565ZM330.231 88.16C330.941 88.16 331.461 88.135 331.791 88.085C331.771 87.795 331.681 87.56 331.521 87.38C331.361 87.19 331.141 87.03 330.861 86.9C330.771 86.86 330.691 86.83 330.621 86.81C330.551 86.79 330.471 86.78 330.381 86.78C329.921 86.78 329.531 86.905 329.211 87.155C328.901 87.405 328.716 87.725 328.656 88.115C329.156 88.145 329.681 88.16 330.231 88.16ZM337.884 86.81C337.744 86.79 337.629 86.73 337.539 86.63C337.459 86.53 337.419 86.41 337.419 86.27C337.419 86.2 337.434 86.125 337.464 86.045C337.504 85.965 337.559 85.895 337.629 85.835C337.759 85.705 338.109 85.64 338.679 85.64C338.759 85.25 338.799 84.855 338.799 84.455C338.799 84.305 338.794 84.175 338.784 84.065C338.774 83.955 338.769 83.87 338.769 83.81C338.769 83.59 338.849 83.425 339.009 83.315C339.179 83.205 339.369 83.15 339.579 83.15C339.839 83.15 340.014 83.215 340.104 83.345C340.204 83.475 340.254 83.715 340.254 84.065C340.254 84.585 340.209 85.095 340.119 85.595C340.279 85.595 340.499 85.585 340.779 85.565C341.159 85.545 341.434 85.535 341.604 85.535C341.774 85.535 341.919 85.58 342.039 85.67C342.169 85.75 342.234 85.865 342.234 86.015C342.234 86.405 342.059 86.635 341.709 86.705C341.339 86.795 340.764 86.85 339.984 86.87C339.954 87.26 339.939 87.685 339.939 88.145C339.939 88.865 339.984 89.455 340.074 89.915C340.134 90.235 340.234 90.47 340.374 90.62C340.524 90.76 340.744 90.83 341.034 90.83C341.204 90.83 341.379 90.785 341.559 90.695C341.679 90.625 341.789 90.59 341.889 90.59C342.029 90.59 342.129 90.635 342.189 90.725C342.259 90.815 342.294 90.935 342.294 91.085C342.294 91.365 342.144 91.6 341.844 91.79C341.544 91.97 341.159 92.06 340.689 92.06C340.399 92.06 340.104 91.99 339.804 91.85C339.514 91.71 339.269 91.535 339.069 91.325C339.039 91.295 338.984 91.18 338.904 90.98C338.824 90.78 338.754 90.565 338.694 90.335C338.594 89.865 338.544 89.205 338.544 88.355C338.544 87.985 338.564 87.49 338.604 86.87L337.884 86.81ZM343.404 88.61C343.404 88.25 343.469 87.915 343.599 87.605C343.729 87.285 343.919 86.955 344.169 86.615C344.419 86.275 344.764 86.01 345.204 85.82C345.644 85.62 346.124 85.52 346.644 85.52C347.044 85.52 347.429 85.605 347.799 85.775C348.179 85.935 348.519 86.135 348.819 86.375C348.859 86.445 348.929 86.575 349.029 86.765C349.129 86.945 349.199 87.11 349.239 87.26C349.289 87.41 349.314 87.565 349.314 87.725C349.314 88.395 349.069 88.845 348.579 89.075C348.089 89.295 347.469 89.405 346.719 89.405C345.969 89.405 345.359 89.355 344.889 89.255C344.909 89.445 344.959 89.635 345.039 89.825C345.119 90.015 345.214 90.16 345.324 90.26C345.524 90.45 345.719 90.575 345.909 90.635C346.109 90.685 346.374 90.71 346.704 90.71C347.204 90.71 347.594 90.615 347.874 90.425C348.134 90.255 348.334 90.17 348.474 90.17C348.664 90.17 348.809 90.23 348.909 90.35C349.009 90.46 349.059 90.605 349.059 90.785C349.059 91.165 348.814 91.475 348.324 91.715C347.844 91.955 347.299 92.075 346.689 92.075C346.209 92.075 345.734 91.99 345.264 91.82C344.794 91.65 344.419 91.41 344.139 91.1C343.949 90.78 343.779 90.39 343.629 89.93C343.479 89.47 343.404 89.03 343.404 88.61ZM346.704 86.75C346.484 86.75 346.254 86.79 346.014 86.87C345.784 86.94 345.604 87.05 345.474 87.2C345.314 87.37 345.194 87.525 345.114 87.665C345.044 87.805 344.999 87.98 344.979 88.19C345.089 88.19 345.194 88.195 345.294 88.205C345.394 88.215 345.489 88.225 345.579 88.235C346.019 88.275 346.349 88.295 346.569 88.295C347.009 88.295 347.344 88.23 347.574 88.1C347.814 87.97 347.934 87.795 347.934 87.575C347.934 87.365 347.799 87.175 347.529 87.005C347.269 86.835 346.994 86.75 346.704 86.75ZM354.96 88.76C355.04 88.81 355.195 88.905 355.425 89.045C355.665 89.175 355.825 89.33 355.905 89.51C355.985 89.69 356.025 89.94 356.025 90.26C356.025 90.62 355.92 90.94 355.71 91.22C355.5 91.49 355.23 91.7 354.9 91.85C354.67 91.95 354.42 92.01 354.15 92.03C353.89 92.05 353.575 92.06 353.205 92.06C353.005 92.06 352.745 92.03 352.425 91.97C352.115 91.91 351.9 91.855 351.78 91.805C351.46 91.625 351.19 91.415 350.97 91.175C350.75 90.935 350.64 90.69 350.64 90.44C350.64 90.24 350.705 90.08 350.835 89.96C350.965 89.84 351.135 89.78 351.345 89.78C351.455 89.78 351.56 89.81 351.66 89.87C351.77 89.92 351.845 89.98 351.885 90.05C351.995 90.31 352.18 90.505 352.44 90.635C352.7 90.765 352.965 90.83 353.235 90.83C354.185 90.83 354.66 90.66 354.66 90.32C354.66 90.23 354.635 90.16 354.585 90.11C354.545 90.05 354.485 89.99 354.405 89.93C354.275 89.84 354.09 89.745 353.85 89.645C353.62 89.545 353.415 89.47 353.235 89.42C352.825 89.33 352.425 89.195 352.035 89.015C351.675 88.835 351.38 88.6 351.15 88.31C350.92 88.01 350.805 87.645 350.805 87.215C350.805 86.955 350.9 86.7 351.09 86.45C351.29 86.19 351.52 85.995 351.78 85.865C351.96 85.795 352.255 85.72 352.665 85.64C353.075 85.56 353.355 85.52 353.505 85.52C353.735 85.52 353.985 85.545 354.255 85.595C354.525 85.635 354.73 85.705 354.87 85.805C355.14 85.965 355.36 86.135 355.53 86.315C355.7 86.485 355.785 86.68 355.785 86.9C355.785 87.01 355.76 87.13 355.71 87.26C355.66 87.38 355.6 87.455 355.53 87.485C355.38 87.555 355.205 87.59 355.005 87.59C354.915 87.59 354.84 87.565 354.78 87.515C354.73 87.465 354.66 87.385 354.57 87.275C354.46 87.105 354.355 87.005 354.255 86.975C354.135 86.945 353.96 86.91 353.73 86.87C353.5 86.82 353.345 86.795 353.265 86.795C353.015 86.795 352.775 86.845 352.545 86.945C352.325 87.045 352.215 87.18 352.215 87.35C352.215 87.55 352.38 87.72 352.71 87.86C352.92 87.96 353.15 88.045 353.4 88.115C353.66 88.185 353.82 88.23 353.88 88.25C354.02 88.28 354.2 88.35 354.42 88.46C354.65 88.57 354.83 88.67 354.96 88.76ZM366.194 86.99C366.194 87.2 366.149 87.36 366.059 87.47C365.979 87.58 365.844 87.635 365.654 87.635C365.514 87.635 365.394 87.6 365.294 87.53C365.204 87.46 365.084 87.34 364.934 87.17C364.814 87.04 364.674 86.935 364.514 86.855C364.364 86.775 364.229 86.735 364.109 86.735C363.499 86.735 363.059 86.865 362.789 87.125C362.619 87.305 362.479 87.545 362.369 87.845C362.259 88.135 362.204 88.435 362.204 88.745C362.204 89.195 362.269 89.555 362.399 89.825C362.529 90.095 362.759 90.325 363.089 90.515C363.209 90.585 363.379 90.645 363.599 90.695C363.819 90.735 363.999 90.755 364.139 90.755C364.329 90.755 364.529 90.705 364.739 90.605C364.949 90.495 365.129 90.355 365.279 90.185C365.469 89.965 365.699 89.855 365.969 89.855C366.079 89.855 366.204 89.91 366.344 90.02C366.494 90.13 366.569 90.26 366.569 90.41C366.569 90.71 366.424 90.99 366.134 91.25C365.854 91.5 365.509 91.7 365.099 91.85C364.689 91.99 364.309 92.06 363.959 92.06C363.369 92.06 362.819 91.925 362.309 91.655C361.809 91.385 361.409 91.015 361.109 90.545C360.809 90.065 360.659 89.525 360.659 88.925C360.659 88.405 360.754 87.9 360.944 87.41C361.144 86.92 361.409 86.52 361.739 86.21C362.009 85.96 362.344 85.775 362.744 85.655C363.144 85.535 363.564 85.475 364.004 85.475C364.314 85.475 364.634 85.535 364.964 85.655C365.294 85.775 365.559 85.935 365.759 86.135C366.049 86.425 366.194 86.71 366.194 86.99ZM374.665 91.28C374.665 91.5 374.545 91.685 374.305 91.835C374.075 91.985 373.86 92.06 373.66 92.06C373.28 92.06 372.975 92.015 372.745 91.925C372.525 91.825 372.32 91.645 372.13 91.385C371.87 91.615 371.515 91.79 371.065 91.91C370.615 92.02 370.2 92.075 369.82 92.075C369.2 92.075 368.69 91.91 368.29 91.58C367.89 91.24 367.69 90.745 367.69 90.095C367.69 89.815 367.765 89.56 367.915 89.33C368.065 89.09 368.27 88.88 368.53 88.7C368.82 88.51 369.15 88.365 369.52 88.265C369.89 88.155 370.275 88.1 370.675 88.1C370.885 88.1 371.135 88.14 371.425 88.22C371.715 88.3 371.94 88.385 372.1 88.475V88.235C372.1 87.695 371.97 87.325 371.71 87.125C371.45 86.915 371.03 86.81 370.45 86.81C370.28 86.81 370.11 86.845 369.94 86.915C369.78 86.985 369.595 87.08 369.385 87.2C369.105 87.35 368.84 87.425 368.59 87.425C368.5 87.425 368.415 87.365 368.335 87.245C368.255 87.115 368.215 87 368.215 86.9C368.215 86.61 368.35 86.36 368.62 86.15C368.9 85.94 369.23 85.785 369.61 85.685C369.99 85.575 370.33 85.52 370.63 85.52C370.93 85.52 371.275 85.58 371.665 85.7C372.055 85.81 372.375 85.965 372.625 86.165C372.925 86.425 373.155 86.73 373.315 87.08C373.485 87.42 373.57 87.795 373.57 88.205C373.57 88.335 373.56 88.53 373.54 88.79C373.52 89.07 373.51 89.31 373.51 89.51C373.51 89.6 373.5 89.735 373.48 89.915C373.46 90.135 373.45 90.31 373.45 90.44C373.45 90.56 373.495 90.665 373.585 90.755C373.675 90.835 373.78 90.875 373.9 90.875L374.32 90.86C374.43 90.86 374.515 90.9 374.575 90.98C374.635 91.06 374.665 91.16 374.665 91.28ZM369.835 90.89C370.265 90.89 370.625 90.845 370.915 90.755C371.205 90.665 371.555 90.5 371.965 90.26C372.005 90.09 372.03 89.865 372.04 89.585C371.49 89.325 371.035 89.195 370.675 89.195C370.265 89.195 369.9 89.27 369.58 89.42C369.26 89.57 369.1 89.835 369.1 90.215C369.1 90.405 369.18 90.565 369.34 90.695C369.5 90.825 369.665 90.89 369.835 90.89ZM377.342 89.675C377.342 90.055 377.397 90.35 377.507 90.56C377.627 90.76 377.777 90.86 377.957 90.86C378.057 90.86 378.152 90.855 378.242 90.845C378.332 90.825 378.422 90.815 378.512 90.815C378.612 90.815 378.697 90.865 378.767 90.965C378.847 91.065 378.887 91.175 378.887 91.295C378.887 91.535 378.772 91.725 378.542 91.865C378.322 91.995 378.022 92.06 377.642 92.06C377.372 92.06 377.097 91.98 376.817 91.82C376.547 91.65 376.322 91.39 376.142 91.04C375.962 90.68 375.872 90.235 375.872 89.705C375.872 88.565 375.892 87.6 375.932 86.81C375.982 85.87 376.007 84.685 376.007 83.255C376.007 82.805 376.032 82.49 376.082 82.31C376.142 82.17 376.237 82.065 376.367 81.995C376.507 81.915 376.652 81.875 376.802 81.875C376.952 81.875 377.082 81.9 377.192 81.95C377.312 82 377.392 82.08 377.432 82.19C377.472 82.31 377.497 82.43 377.507 82.55C377.527 82.66 377.537 82.82 377.537 83.03C377.537 83.44 377.522 83.835 377.492 84.215C377.472 84.675 377.462 85.01 377.462 85.22C377.382 86.98 377.342 88.465 377.342 89.675ZM385.82 87.185C385.9 87.325 385.965 87.53 386.015 87.8C386.065 88.06 386.09 88.295 386.09 88.505C386.09 88.775 386.06 89.075 386 89.405C385.94 89.735 385.885 89.99 385.835 90.17C385.145 91.43 384.125 92.06 382.775 92.06C382.275 92.06 381.765 91.895 381.245 91.565C380.725 91.235 380.365 90.855 380.165 90.425C379.895 89.575 379.76 89.03 379.76 88.79C379.76 88.39 379.845 87.965 380.015 87.515C380.195 87.065 380.42 86.675 380.69 86.345C380.87 86.115 381.18 85.92 381.62 85.76C382.06 85.59 382.46 85.505 382.82 85.505C383.52 85.505 384.11 85.64 384.59 85.91C385.08 86.17 385.49 86.595 385.82 87.185ZM384.515 89.6C384.565 89.5 384.59 89.165 384.59 88.595C384.59 88.305 384.535 88.02 384.425 87.74C384.325 87.46 384.175 87.22 383.975 87.02C383.955 87 383.9 86.97 383.81 86.93C383.72 86.88 383.595 86.835 383.435 86.795C383.285 86.745 383.11 86.72 382.91 86.72C382.35 86.72 381.94 86.945 381.68 87.395C381.42 87.845 381.29 88.355 381.29 88.925C381.29 89.015 381.32 89.2 381.38 89.48C381.44 89.76 381.485 89.94 381.515 90.02C381.595 90.16 381.755 90.325 381.995 90.515C382.245 90.695 382.515 90.785 382.805 90.785C383.255 90.785 383.61 90.68 383.87 90.47C384.14 90.25 384.355 89.96 384.515 89.6ZM387.587 86.735C387.327 86.555 387.197 86.365 387.197 86.165C387.197 86.025 387.257 85.895 387.377 85.775C387.497 85.655 387.677 85.595 387.917 85.595C388.197 85.595 388.447 85.67 388.667 85.82C388.897 85.96 389.057 86.165 389.147 86.435C389.377 86.165 389.637 85.95 389.927 85.79C390.227 85.63 390.532 85.55 390.842 85.55C391.212 85.55 391.547 85.65 391.847 85.85C392.147 86.05 392.297 86.32 392.297 86.66C392.297 86.85 392.212 87.045 392.042 87.245C391.882 87.445 391.717 87.545 391.547 87.545C391.457 87.545 391.377 87.525 391.307 87.485C391.247 87.435 391.172 87.365 391.082 87.275C390.982 87.175 390.897 87.105 390.827 87.065C390.757 87.015 390.677 86.99 390.587 86.99C390.427 86.99 390.277 87.015 390.137 87.065C389.997 87.115 389.902 87.175 389.852 87.245C389.692 87.495 389.572 87.72 389.492 87.92C389.422 88.12 389.387 88.335 389.387 88.565C389.387 88.735 389.382 88.87 389.372 88.97L389.357 89.825C389.357 89.955 389.362 90.1 389.372 90.26C389.382 90.42 389.392 90.54 389.402 90.62C389.432 90.89 389.447 91.15 389.447 91.4C389.447 91.57 389.382 91.72 389.252 91.85C389.122 91.98 388.962 92.045 388.772 92.045C388.472 92.045 388.252 91.99 388.112 91.88C387.972 91.76 387.902 91.545 387.902 91.235L387.887 90.275C387.877 90.085 387.872 89.815 387.872 89.465L387.887 88.475C387.907 87.995 387.917 87.605 387.917 87.305C387.917 87.195 387.892 87.095 387.842 87.005C387.802 86.915 387.717 86.825 387.587 86.735ZM393.917 82.37C394.267 82.4 394.567 82.495 394.817 82.655C395.077 82.805 395.207 83.035 395.207 83.345C395.207 83.575 395.102 83.76 394.892 83.9C394.682 84.03 394.422 84.095 394.112 84.095C393.822 84.095 393.622 84.02 393.512 83.87C393.402 83.72 393.347 83.565 393.347 83.405C393.347 83.115 393.382 82.87 393.452 82.67C393.522 82.46 393.677 82.36 393.917 82.37ZM393.617 88.565V88.13C393.617 87.63 393.592 87.175 393.542 86.765C393.502 86.345 393.477 86.085 393.467 85.985C393.477 85.875 393.552 85.77 393.692 85.67C393.832 85.57 393.957 85.52 394.067 85.52C394.257 85.52 394.447 85.56 394.637 85.64C394.837 85.71 394.962 85.8 395.012 85.91C395.062 86.28 395.087 86.565 395.087 86.765C395.087 87.205 395.107 87.925 395.147 88.925L395.162 89.51L395.192 90.08C395.202 90.24 395.212 90.43 395.222 90.65C395.232 90.87 395.237 91.12 395.237 91.4C395.237 91.59 395.142 91.75 394.952 91.88C394.772 92.01 394.582 92.075 394.382 92.075C394.092 92.075 393.887 92.01 393.767 91.88C393.657 91.75 393.602 91.545 393.602 91.265L393.617 88.565ZM396.87 88.82C396.87 88.44 396.94 88.06 397.08 87.68C397.22 87.29 397.405 86.935 397.635 86.615C397.865 86.295 398.23 86.035 398.73 85.835C399.23 85.625 399.675 85.52 400.065 85.52C400.465 85.52 400.87 85.575 401.28 85.685C401.7 85.795 401.99 85.965 402.15 86.195C402.52 86.715 402.705 87.225 402.705 87.725C402.705 87.995 402.645 88.225 402.525 88.415C402.415 88.605 402.255 88.81 402.045 89.03C401.875 89.21 401.605 89.33 401.235 89.39C400.875 89.45 400.515 89.48 400.155 89.48C399.925 89.48 399.645 89.46 399.315 89.42C398.985 89.37 398.665 89.31 398.355 89.24C398.375 89.44 398.425 89.635 398.505 89.825C398.585 90.015 398.68 90.16 398.79 90.26C398.99 90.45 399.195 90.57 399.405 90.62C399.625 90.67 399.905 90.695 400.245 90.695C400.605 90.695 400.94 90.635 401.25 90.515C401.5 90.425 401.705 90.38 401.865 90.38C402.055 90.38 402.2 90.44 402.3 90.56C402.4 90.67 402.45 90.815 402.45 90.995C402.45 91.245 402.305 91.45 402.015 91.61C401.725 91.77 401.39 91.89 401.01 91.97C400.64 92.04 400.34 92.075 400.11 92.075C399.64 92.075 399.185 91.99 398.745 91.82C398.305 91.65 397.94 91.41 397.65 91.1C397.41 90.82 397.22 90.485 397.08 90.095C396.94 89.695 396.87 89.27 396.87 88.82ZM400.14 86.795C399.92 86.795 399.7 86.84 399.48 86.93C399.26 87.01 399.08 87.125 398.94 87.275C398.76 87.465 398.635 87.62 398.565 87.74C398.505 87.85 398.465 88.005 398.445 88.205C398.695 88.285 399.215 88.325 400.005 88.325C400.435 88.325 400.765 88.26 400.995 88.13C401.235 88 401.355 87.83 401.355 87.62C401.355 87.41 401.225 87.22 400.965 87.05C400.705 86.88 400.43 86.795 400.14 86.795ZM408.399 88.565C408.799 88.795 409.079 89.025 409.239 89.255C409.399 89.475 409.479 89.765 409.479 90.125C409.479 90.485 409.374 90.805 409.164 91.085C408.954 91.355 408.684 91.565 408.354 91.715C408.114 91.825 407.814 91.91 407.454 91.97C407.104 92.03 406.829 92.06 406.629 92.06C406.279 92.06 405.899 91.995 405.489 91.865C405.079 91.735 404.729 91.55 404.439 91.31C404.159 91.07 404.019 90.79 404.019 90.47C404.019 90.27 404.084 90.115 404.214 90.005C404.344 89.885 404.514 89.825 404.724 89.825C404.894 89.825 405.074 89.945 405.264 90.185C405.454 90.395 405.674 90.555 405.924 90.665C406.184 90.775 406.439 90.83 406.689 90.83C407.639 90.83 408.114 90.615 408.114 90.185C408.114 90.095 408.084 90.01 408.024 89.93C407.964 89.84 407.909 89.78 407.859 89.75C407.769 89.68 407.644 89.62 407.484 89.57C407.324 89.52 407.164 89.48 407.004 89.45C406.844 89.41 406.724 89.38 406.644 89.36C406.564 89.34 406.394 89.305 406.134 89.255C405.884 89.205 405.644 89.12 405.414 89C405.034 88.82 404.724 88.6 404.484 88.34C404.254 88.08 404.139 87.745 404.139 87.335C404.139 87.105 404.194 86.875 404.304 86.645C404.424 86.405 404.584 86.225 404.784 86.105C405.084 85.915 405.414 85.77 405.774 85.67C406.134 85.57 406.469 85.52 406.779 85.52C407.029 85.52 407.309 85.545 407.619 85.595C407.939 85.645 408.169 85.715 408.309 85.805C408.569 85.945 408.759 86.09 408.879 86.24C408.999 86.39 409.059 86.58 409.059 86.81C409.059 86.92 409.034 87.03 408.984 87.14C408.934 87.24 408.874 87.31 408.804 87.35C408.644 87.41 408.504 87.44 408.384 87.44C408.294 87.44 408.219 87.425 408.159 87.395C408.099 87.355 408.044 87.315 407.994 87.275C407.954 87.235 407.929 87.21 407.919 87.2C407.789 87.06 407.644 86.95 407.484 86.87C407.324 86.79 407.089 86.75 406.779 86.75C406.579 86.75 406.384 86.78 406.194 86.84C406.014 86.89 405.874 86.955 405.774 87.035C405.694 87.095 405.639 87.15 405.609 87.2C405.579 87.24 405.564 87.295 405.564 87.365C405.564 87.645 405.844 87.85 406.404 87.98C406.974 88.11 407.274 88.18 407.304 88.19C407.364 88.21 407.529 88.26 407.799 88.34C408.079 88.42 408.279 88.495 408.399 88.565Z" fill="black"/>
<path d="M38 39C38 60.5391 82.2711 78 53 78C23.7289 78 0 60.5391 0 39C0 17.4609 23.7289 0 53 0C82.2711 0 38 17.4609 38 39Z" fill="#51A41D"/>
<path d="M81 39C81 60.5391 125.271 78 96 78C66.7289 78 43 60.5391 43 39C43 17.4609 66.7289 0 96 0C125.271 0 81 17.4609 81 39Z" fill="#A1F46E"/>
<path d="M131.992 62H131.16V17.2H133.336L159.96 58.608V17.2H160.792V62H156.12L131.992 24.88V62ZM171.978 54.64C171.978 58.0107 172.874 60.1653 174.666 61.104C175.519 61.5307 176.607 61.744 177.93 61.744C180.618 61.744 183.007 60.72 185.098 58.672C187.231 56.624 188.383 54.7253 188.554 52.976V30H193.034V57.456C193.034 58.6933 193.268 59.6533 193.738 60.336C194.25 60.976 194.762 61.3173 195.274 61.36L195.978 61.488H197.962V62H194.058C192.308 62 190.964 61.616 190.026 60.848C189.13 60.08 188.66 59.312 188.618 58.544L188.554 57.456V54.704C187.786 56.5387 186.42 58.2667 184.458 59.888C182.495 61.4667 180.34 62.256 177.994 62.256C175.69 62.256 173.791 62.0427 172.298 61.616C170.847 61.1467 169.802 60.5067 169.161 59.696C168.052 58.3733 167.498 56.6667 167.498 54.576V30H171.978V54.64ZM200.865 30.512V30H202.209V23.6H206.689V30H216.481V30.512H206.689V53.808C206.689 56.5813 206.988 58.5867 207.585 59.824C208.225 61.0613 209.526 61.68 211.489 61.68C213.494 61.68 215.521 61.2747 217.569 60.464L217.761 60.976C215.628 61.7867 213.174 62.192 210.401 62.192C207.67 62.192 205.622 61.6373 204.257 60.528C202.892 59.376 202.209 57.1147 202.209 53.744V30.512H200.865ZM232.847 32.752V31.408C230.927 32.176 229.177 33.7333 227.599 36.08C226.02 38.384 225.188 40.56 225.103 42.608V62H220.623V30H225.103V40.176C225.785 37.7013 227.087 35.376 229.007 33.2C230.927 30.9813 233.103 29.8293 235.535 29.744H235.791C236.644 29.744 237.348 30.0427 237.903 30.64C238.5 31.1947 238.799 31.8987 238.799 32.752C238.799 33.6053 238.5 34.3093 237.903 34.864C237.348 35.4187 236.644 35.696 235.791 35.696C234.937 35.696 234.233 35.4187 233.679 34.864C233.124 34.3093 232.847 33.6053 232.847 32.752ZM250.151 62C248.401 62 247.057 61.616 246.119 60.848C245.223 60.08 244.753 59.312 244.711 58.544L244.647 57.456V30H249.127V57.456C249.127 58.6933 249.361 59.6533 249.831 60.336C250.343 60.976 250.833 61.3173 251.303 61.36L252.071 61.488H254.055V62H250.151ZM245.031 22.832C244.519 22.32 244.263 21.68 244.263 20.912C244.263 20.144 244.519 19.504 245.031 18.992C245.543 18.4373 246.183 18.16 246.951 18.16C247.719 18.16 248.359 18.4373 248.871 18.992C249.425 19.504 249.703 20.144 249.703 20.912C249.703 21.68 249.425 22.32 248.871 22.832C248.359 23.344 247.719 23.6 246.951 23.6C246.183 23.6 245.543 23.344 245.031 22.832ZM286.577 17.2V17.84H266.417V38.32H285.105V38.96H266.417V62H261.105V17.2H286.577ZM298.876 62C295.121 62 292.753 61.0187 291.772 59.056C291.558 58.6293 291.452 58.2453 291.452 57.904V14.064H295.932V57.456C295.932 58.6933 296.166 59.6533 296.635 60.336C297.148 60.976 297.66 61.3173 298.172 61.36L298.876 61.488H300.86V62H298.876ZM317.666 62.256C313.186 62.256 309.538 60.976 306.722 58.416C303.906 55.856 302.498 51.9093 302.498 46.576C302.498 41.2427 303.948 37.104 306.85 34.16C309.794 31.216 313.506 29.744 317.986 29.744C322.508 29.744 326.178 31.024 328.994 33.584C331.81 36.144 333.218 40.0907 333.218 45.424C333.218 50.7573 331.746 54.896 328.802 57.84C325.9 60.784 322.188 62.256 317.666 62.256ZM318.114 30.256C314.871 30.256 312.183 31.7067 310.05 34.608C307.916 37.4667 306.85 41.4773 306.85 46.64C306.85 51.76 307.831 55.5573 309.794 58.032C311.756 60.5067 314.359 61.744 317.602 61.744C320.844 61.744 323.532 60.3147 325.666 57.456C327.799 54.5547 328.866 50.544 328.866 45.424C328.866 40.2613 327.884 36.4427 325.922 33.968C323.959 31.4933 321.356 30.256 318.114 30.256ZM380.469 30.384L380.853 30C381.023 30.0853 381.237 30.3413 381.493 30.768C381.791 31.1947 381.962 31.5787 382.005 31.92C382.09 32.2613 382.133 32.5813 382.133 32.88C382.133 34.032 381.877 35.2053 381.365 36.4L369.717 62H369.076L359.861 37.232L348.597 62H347.957L336.053 30H340.533L350.325 56.496L359.541 36.464L357.173 30H361.653L371.444 56.496L380.725 36.4C381.237 35.504 381.493 34.4373 381.493 33.2C381.493 31.9627 381.151 31.024 380.469 30.384Z" fill="black"/>
</svg>
